<?xml version="1.0" encoding="UTF-8"?>
<!-- Created with Inkscape (http://www.inkscape.org/) -->
<svg width="475.85" height="103.53" version="1.1" viewBox="0 0 475.85 103.53" xmlns="http://www.w3.org/2000/svg">
 <g transform="translate(-29.813 -198.1)" stroke="#000">
  <path d="m143.18 274.36h14.72l9.1734-26.027h23.787l10.027 26.027h14.613l-28.8-74.774h-16zm45.973-36.48h-20.8l8.7467-19.84c0.96-2.24 0.42667-5.3334 0.42667-7.68h2.4533c0 2.3467-0.53334 5.44 0.42667 7.68zm42.174-13.013c-3.3067 2.4533-5.0134 7.7867-6.6134 11.52l-2.24-0.96001c1.6-3.7333 3.84-8.64 3.84-12.693v-1.6h-13.013v53.334h13.013v-23.253c0-14.827 13.76-19.52 26.987-19.52v-12.16c-10.453 0-16.32 0.96-21.973 5.3334zm65 44.267c2.1333-2.4533 2.56-6.8267 3.52-9.8134l2.3467 0.74667c-0.96001 2.9867-2.88 6.8267-2.88 10.027l-0.10667 4.3734h13.12v-53.334h-13.12l0.10667 4.0533c0 3.2 1.92 6.9334 2.88 10.027l-2.24 0.74667c-1.0667-3.0933-1.4933-7.4667-3.7334-9.8134-3.84-4.16-9.3867-6.6134-16.533-6.6134-15.893 0-27.093 12.053-27.093 27.947 0 15.893 11.2 28.693 27.093 28.693 7.1467 0 12.693-2.6667 16.64-7.04zm-30.613-21.653c0-9.0667 5.8667-15.787 14.72-15.787 9.7067 0 14.933 6.4 14.933 15.787-0.32 8.7467-6.1867 16.533-14.933 16.533-8.8534 0-14.72-7.5734-14.72-16.533zm51.347-34.347h14.187v-13.333h-14.187zm0.74667 61.334h12.907v-53.334h-12.907z"/>
  <path d="m337.68 274.47h10.133v-10.133h-10.133zm64.04-14.827c0-22.08-39.893-13.013-39.893-24.64 0-5.0134 6.08-8.32 14.613-8.32 8.8534 0 16.107 2.56 16.107 7.2534h7.5734c0-9.6-12.053-14.4-23.68-14.4-13.333 0-22.4 7.1467-22.4 15.253 0 21.653 39.893 9.6 39.893 25.6 0 6.4-5.76 8.64-14.293 8.64-9.3867 0-18.88-5.0134-18.88-9.4934h-7.5734c0 10.133 14.293 16.64 26.347 16.64 14.293 0 22.187-5.2267 22.187-16.533zm7.9334-38.507h-8l24 53.334-4.16 8.96c-3.2 6.9334-4.6934 10.56-11.2 10.56h-6.9334v7.1467h9.0667c9.6 0 12.907-7.04 17.28-17.387 1.4933-3.4134 2.7733-6.08 4.2667-9.3867l23.787-53.227h-8l-18.347 40.64c-0.96 2.1333-0.85333 5.2267-0.85333 7.68h-1.6c0-2.3467 0.10667-5.5467-0.85333-7.68zm95.507 38.507c0-22.08-39.893-13.013-39.893-24.64 0-5.0134 6.08-8.32 14.613-8.32 8.8534 0 16.107 2.56 16.107 7.2534h7.5734c0-9.6-12.053-14.4-23.68-14.4-13.333 0-22.4 7.1467-22.4 15.253 0 21.653 39.893 9.6 39.893 25.6 0 6.4-5.76 8.64-14.293 8.64-9.3867 0-18.88-5.0134-18.88-9.4934h-7.5734c0 10.133 14.293 16.64 26.347 16.64 14.293 0 22.187-5.2267 22.187-16.533z"/>
 </g>
 <g transform="matrix(.47373 0 0 .47373 -68.391 -61.649)">
  <path d="m334.13 205.29h-3.5153c0.57041-3.1987 0.88428-6.4865 0.88428-9.849 0-30.821-24.985-55.806-55.807-55.806-27.797 0-50.84 20.326-55.095 46.924h-17.202c-27.238 0-49.523 22.285-49.523 49.523s22.285 49.523 49.523 49.523h130.73c22.087 0 40.158-18.071 40.158-40.158 0-22.086-18.071-40.157-40.157-40.157z" fill="none" stroke="#000" stroke-width="18.998"/>
 </g>
</svg>
