<?xml version="1.0" encoding="UTF-8"?>
<!-- Created with Inkscape (http://www.inkscape.org/) -->
<svg width="92" height="20" version="1.1" viewBox="0 0 92 20" xmlns="http://www.w3.org/2000/svg">
 <g transform="matrix(.26025 0 0 .26025 -219.76 -15.967)" stroke="#000" stroke-width=".68633">
  <path d="m928.71 117.24h10.103l6.296-17.863h16.326l6.8817 17.863h10.03l-19.767-51.32h-10.981zm31.553-25.038h-14.276l6.0032-13.617c0.65888-1.5374 0.29283-3.6605 0.29283-5.2711h1.6838c0 1.6106-0.36603 3.7337 0.29284 5.2711zm28.945-8.9315c-2.2694 1.6838-3.4408 5.3443-4.539 7.9066l-1.5373-0.65889c1.0981-2.5623 2.6355-5.9299 2.6355-8.7119v-1.0981h-8.9316v36.605h8.9316v-15.96c0-10.176 9.444-13.397 18.522-13.397v-8.3458c-7.1746 0-11.201 0.65888-15.081 3.6605zm44.612 30.382c1.4643-1.6838 1.7571-4.6854 2.4159-6.7352l1.6107 0.51246c-0.6589 2.0499-1.9766 4.6854-1.9766 6.8817l-0.073 3.0016h9.0047v-36.605h-9.0047l0.073 2.7819c0 2.1963 1.3177 4.7586 1.9766 6.8817l-1.5374 0.51246c-0.7321-2.1231-1.0249-5.1246-2.5623-6.7352-2.6355-2.8552-6.4425-4.539-11.347-4.539-10.908 0-18.595 8.2726-18.595 19.181 0 10.908 7.6869 19.693 18.595 19.693 4.9049 0 8.7119-1.8302 11.42-4.8318zm-21.011-14.861c0-6.2228 4.0266-10.835 10.103-10.835 6.6621 0 10.249 4.3926 10.249 10.835-0.2195 6.0031-4.2462 11.347-10.249 11.347-6.0762 0-10.103-5.1979-10.103-11.347zm35.241-23.573h9.7368v-9.1511h-9.7368zm0.5123 42.095h8.8584v-36.605h-8.8584z"/>
  <path d="m1062.2 117.31h6.9549v-6.9549h-6.9549zm43.953-10.176c0-15.154-27.38-8.9315-27.38-16.911 0-3.4408 4.173-5.7103 10.03-5.7103 6.0765 0 11.055 1.757 11.055 4.9782h5.1979c0-6.5888-8.2726-9.8833-16.252-9.8833-9.1512 0-15.374 4.905-15.374 10.469 0 14.861 27.38 6.5888 27.38 17.57 0 4.3926-3.9533 5.93-9.81 5.93-6.4425 0-12.958-3.4408-12.958-6.5156h-5.1979c0 6.9548 9.81 11.421 18.083 11.421 9.81 0 15.228-3.5872 15.228-11.347zm5.4449-26.429h-5.4906l16.472 36.605-2.8553 6.1496c-2.1962 4.7586-3.2212 7.2477-7.687 7.2477h-4.7585v4.905h6.2226c6.589 0 8.8585-4.8318 11.86-11.933 1.0248-2.3427 1.9032-4.1729 2.9282-6.4424l16.326-36.531h-5.4907l-12.592 27.893c-0.6589 1.4642-0.5859 3.5872-0.5859 5.2711h-1.098c0-1.6106 0.073-3.8069-0.5857-5.2711zm65.55 26.429c0-15.154-27.38-8.9315-27.38-16.911 0-3.4408 4.1728-5.7103 10.03-5.7103 6.0764 0 11.054 1.757 11.054 4.9782h5.1979c0-6.5888-8.2726-9.8833-16.252-9.8833-9.1511 0-15.374 4.905-15.374 10.469 0 14.861 27.38 6.5888 27.38 17.57 0 4.3926-3.9534 5.93-9.81 5.93-6.4424 0-12.958-3.4408-12.958-6.5156h-5.198c0 6.9548 9.8101 11.421 18.083 11.421 9.8101 0 15.228-3.5872 15.228-11.347z"/>
 </g>
 <g transform="matrix(.12329 0 0 .12329 -229.8 19.545)">
  <path d="m2007.9-99.463h-2.4128c0.3915-2.1954 0.6068-4.4519 0.6068-6.7597 0-21.154-17.148-38.302-38.302-38.302-19.078 0-34.893 13.95-37.814 32.206h-11.807c-18.694 0-33.99 15.295-33.99 33.989 0 18.694 15.295 33.989 33.99 33.989h89.728c15.159 0 27.562-12.403 27.562-27.562 0-15.158-12.403-27.561-27.561-27.561z" fill="none" stroke="#000" stroke-width="13.039"/>
 </g>
</svg>
