<svg width="24" height="24" viewBox="0 0 24 24" fill="none" xmlns="http://www.w3.org/2000/svg">
<path d="M21.2805 18.7361C20.7752 17.5392 20.042 16.4521 19.1216 15.5352C18.204 14.6156 17.117 13.8825 15.9207 13.3762C15.91 13.3709 15.8993 13.3682 15.8885 13.3628C17.5573 12.1575 18.6421 10.1941 18.6421 7.97892C18.6421 4.30927 15.6689 1.33606 11.9993 1.33606C8.32962 1.33606 5.3564 4.30927 5.3564 7.97892C5.3564 10.1941 6.44122 12.1575 8.10997 13.3655C8.09926 13.3709 8.08855 13.3736 8.07783 13.3789C6.87783 13.8852 5.80105 14.6111 4.87694 15.5378C3.95741 16.4554 3.22427 17.5424 2.71801 18.7387C2.22066 19.91 1.95243 21.1656 1.92783 22.4378C1.92712 22.4664 1.93213 22.4949 1.94258 22.5215C1.95303 22.5481 1.9687 22.5724 1.98867 22.5928C2.00864 22.6133 2.0325 22.6296 2.05886 22.6407C2.08521 22.6518 2.11352 22.6575 2.14212 22.6575H3.74926C3.86712 22.6575 3.96087 22.5637 3.96355 22.4486C4.01712 20.3807 4.84747 18.4441 6.31533 16.9762C7.83408 15.4575 9.85105 14.6218 11.9993 14.6218C14.1475 14.6218 16.1644 15.4575 17.6832 16.9762C19.151 18.4441 19.9814 20.3807 20.035 22.4486C20.0377 22.5664 20.1314 22.6575 20.2493 22.6575H21.8564C21.885 22.6575 21.9133 22.6518 21.9397 22.6407C21.966 22.6296 21.9899 22.6133 22.0099 22.5928C22.0298 22.5724 22.0455 22.5481 22.0559 22.5215C22.0664 22.4949 22.0714 22.4664 22.0707 22.4378C22.0439 21.1575 21.7787 19.912 21.2805 18.7361ZM11.9993 12.5861C10.7698 12.5861 9.61265 12.1066 8.74212 11.2361C7.87158 10.3655 7.39212 9.20838 7.39212 7.97892C7.39212 6.74945 7.87158 5.59231 8.74212 4.72177C9.61265 3.85124 10.7698 3.37177 11.9993 3.37177C13.2287 3.37177 14.3859 3.85124 15.2564 4.72177C16.1269 5.59231 16.6064 6.74945 16.6064 7.97892C16.6064 9.20838 16.1269 10.3655 15.2564 11.2361C14.3859 12.1066 13.2287 12.5861 11.9993 12.5861Z" fill="#9EA5AD"/>
</svg>
